# xmcd
#
# Track frame offsets: 
#        150
#        37872
#        64985
#        94789
#        131154
#        164397
#        193371
#        223848
#        276487
#        298132
#
# Disc length: 4664 seconds
#
# Revision: 1
# Processed by: cddbd v1.5.2PL0 Copyright (c) Steve Scherf et al.
# Submitted via: ExactAudioCopy v0.99pb4
#
DISCID=a812360a
DTITLE=Willie Foster and The Juke Joints - Live!
DYEAR=1900
DGENRE=Blues
TTITLE0=Foster Shuffle
TTITLE1=Love Everybody
TTITLE2=If You Love Me
TTITLE3=Honey Sugar Bowl
TTITLE4=Going To St. Louis
TTITLE5=Ready For The Blues
TTITLE6=Sugar Sweet
TTITLE7=Janie On My Mind
TTITLE8=Promised Me Love
TTITLE9=Everyday I Have The Blues
EXTD=
EXTT0=
EXTT1=
EXTT2=
EXTT3=
EXTT4=
EXTT5=
EXTT6=
EXTT7=
EXTT8=
EXTT9=
PLAYORDER=
